<svg id="Capa_1" version="1.1" viewBox="0 0 150 150" xml:space="preserve" xmlns="http://www.w3.org/2000/svg" enable-background="new 0 0 150 150"><g id="g17480" transform="translate(646.303 236.379)"><path d="M-571.3-147.3c7.9 0 14.2-6.4 14.2-14.2v-33.2c0-7.9-6.4-14.2-14.2-14.2-7.9 0-14.2 6.4-14.2 14.2v33.2c0 7.8 6.4 14.2 14.2 14.2" id="path17482" fill="#fcfcfc" class="fill-1e88e5"></path></g><g id="g17484" transform="translate(645.48 233.15)"><path d="M-575.2-125.5v14.9h9.5v-14.8c-1.5.2-3.1.2-4.7.2-1.7.1-3.2 0-4.8-.3" id="path17486" fill="#ffffff" class="fill-4caf50"></path></g><g id="g17488" transform="translate(643.38 235.911)"><path d="M-585.2-144.1c-4.2-4.3-6.9-9.5-6.9-16.6h-9.5c0 9.5 3.7 17.3 9.7 23.3l.1-.1-.1-.1 6.7-6.5z" id="path17490" fill="#ffffff" class="fill-fbc02d"></path></g><g id="g17492" transform="translate(650.408 238.79)"><path d="M-551.7-163.6c0 11.9-10.5 23.6-23.7 23.6-6.6 0-12.5-2.7-16.8-7l-.1.1-6.6 6.6.1.1c4.9 4.9 11.4 8.2 18.7 9.3 1.6.2 3.2.4 4.8.4 1.6 0 3.2 0 4.7-.2 16.1-2.3 28.4-16.1 28.4-32.7h-9.5z" id="path17494" fill="#ffffff" class="fill-e53935"></path></g></svg>