<svg viewBox="0 0 24 24" xml:space="preserve" xmlns="http://www.w3.org/2000/svg" enable-background="new 0 0 24 24"><g id="_icons"><path d="M4 12h16c.6 0 1-.4 1-1s-.4-1-1-1h-2.2l-1.5-5.8C16 2.9 14.9 2 13.6 2c-.2 0-.4.1-.5.2l-.3.2c-.4.3-.9.3-1.3 0l-.5-.2c-.2-.1-.4-.2-.6-.2-1.3 0-2.4.9-2.7 2.2L6.2 10H4c-.6 0-1 .4-1 1s.4 1 1 1zm5.6-7.4c.1-.3.3-.5.6-.6 1.1.7 2.4.7 3.5 0 .3.1.5.3.6.6L15 7H9l.6-2.4zM8.5 9h6.9l.3 1H8.3l.2-1zM17 13c-1.9 0-3.4 1.3-3.9 3h-2.3c-.4-1.7-2-3-3.9-3-2.2 0-4 1.8-4 4s1.8 4 4 4c1.9 0 3.4-1.3 3.9-3h2.3c.4 1.7 2 3 3.9 3 2.2 0 4-1.8 4-4s-1.8-4-4-4zM7 19c-1.1 0-2-.9-2-2s.9-2 2-2 2 .9 2 2-.9 2-2 2zm10 0c-1.1 0-2-.9-2-2s.9-2 2-2 2 .9 2 2-.9 2-2 2z" fill="#ffffff" class="fill-000000"></path></g></svg>